<svg width="161" height="44" viewBox="0 0 161 44" fill="none" xmlns="http://www.w3.org/2000/svg">
<path d="M5.056 34V33.68H5.728C6.24 33.68 6.66667 33.6053 7.008 33.456C7.37067 33.3067 7.63733 33.072 7.808 32.752C8 32.4107 8.096 31.9733 8.096 31.44V11.472H5.632C4.544 11.472 3.65867 11.6107 2.976 11.888C2.31467 12.144 1.824 12.592 1.504 13.232C1.20533 13.8507 1.024 14.6933 0.96 15.76L0.864 16.912H0.544L0.768 11.152H19.232L19.424 16.912H19.104L19.04 15.76C18.976 14.6933 18.784 13.8507 18.464 13.232C18.144 12.592 17.6533 12.144 16.992 11.888C16.3307 11.6107 15.4453 11.472 14.336 11.472H11.84V31.44C11.84 31.9733 11.9253 32.4107 12.096 32.752C12.2667 33.072 12.5333 33.3067 12.896 33.456C13.2587 33.6053 13.6853 33.68 14.176 33.68H14.848V34H5.056ZM20.5448 34V33.68H20.8328C21.3874 33.68 21.8568 33.6053 22.2408 33.456C22.6248 33.2853 22.9021 33.008 23.0728 32.624C23.2648 32.2187 23.3608 31.664 23.3608 30.96V12.624C23.3608 11.9413 23.2648 11.4187 23.0728 11.056C22.8808 10.672 22.6034 10.4053 22.2408 10.256C21.8994 10.0853 21.4408 10 20.8648 10H20.6408V9.68H26.8808V16.144C26.8808 16.5493 26.8808 16.9547 26.8808 17.36C26.8808 17.7653 26.8808 18.1707 26.8808 18.576C26.8808 18.9813 26.8701 19.3973 26.8488 19.824H26.9128C27.1901 18.8427 27.5848 18.1173 28.0968 17.648C28.6301 17.1787 29.2061 16.8693 29.8248 16.72C30.4648 16.5707 31.0621 16.496 31.6168 16.496C33.4941 16.496 34.8914 16.9973 35.8088 18C36.7474 18.9813 37.2168 20.56 37.2168 22.736V30.928C37.2168 31.6533 37.2914 32.2187 37.4408 32.624C37.5901 33.008 37.8354 33.2853 38.1768 33.456C38.5394 33.6053 38.9981 33.68 39.5528 33.68H39.6808V34H33.6968V21.68C33.6968 20.2933 33.4621 19.184 32.9928 18.352C32.5234 17.52 31.7128 17.104 30.5608 17.104C29.6221 17.104 28.8861 17.3707 28.3528 17.904C27.8194 18.4373 27.4354 19.1413 27.2008 20.016C26.9874 20.8693 26.8808 21.7867 26.8808 22.768V30.96C26.8808 31.6853 26.9661 32.24 27.1368 32.624C27.3288 33.008 27.6061 33.2853 27.9688 33.456C28.3528 33.6053 28.8114 33.68 29.3448 33.68H29.5688V34H20.5448ZM41.2665 34V33.68H41.6505C42.2052 33.68 42.6638 33.6053 43.0265 33.456C43.4105 33.3067 43.6985 33.0613 43.8905 32.72C44.0825 32.3787 44.1785 31.9093 44.1785 31.312V19.504C44.1785 18.928 44.0825 18.4693 43.8905 18.128C43.6985 17.7867 43.4105 17.5413 43.0265 17.392C42.6638 17.2427 42.2052 17.168 41.6505 17.168H41.5545V16.848H47.6665V19.92H47.7305C47.9012 19.3227 48.1465 18.768 48.4665 18.256C48.8078 17.744 49.2772 17.328 49.8745 17.008C50.4718 16.6667 51.2505 16.496 52.2105 16.496C53.3198 16.496 54.1625 16.72 54.7385 17.168C55.3145 17.5947 55.6025 18.2027 55.6025 18.992C55.6025 19.7173 55.3358 20.304 54.8025 20.752C54.2692 21.2 53.4478 21.424 52.3385 21.424C52.3385 20.464 52.2425 19.7173 52.0505 19.184C51.8585 18.6507 51.6025 18.2773 51.2825 18.064C50.9838 17.8293 50.6425 17.712 50.2585 17.712C49.7252 17.712 49.2878 17.8933 48.9465 18.256C48.6052 18.6187 48.3385 19.1093 48.1465 19.728C47.9758 20.3467 47.8585 21.008 47.7945 21.712C47.7305 22.416 47.6985 23.1307 47.6985 23.856V31.216C47.6985 31.8347 47.7945 32.3253 47.9865 32.688C48.1785 33.0507 48.4665 33.3067 48.8505 33.456C49.2345 33.6053 49.6932 33.68 50.2265 33.68H50.8025V34H41.2665ZM65.5978 34.32C63.1018 34.32 61.1711 33.552 59.8058 32.016C58.4618 30.48 57.7898 28.3253 57.7898 25.552C57.7898 22.544 58.4298 20.2827 59.7098 18.768C60.9898 17.2533 62.7924 16.496 65.1178 16.496C67.2511 16.496 68.9258 17.1467 70.1418 18.448C71.3791 19.728 71.9978 21.6373 71.9978 24.176V24.944H61.4058C61.4058 27.0987 61.5551 28.848 61.8538 30.192C62.1524 31.5147 62.6324 32.4853 63.2938 33.104C63.9551 33.7013 64.8191 34 65.8858 34C66.6751 34 67.3791 33.8507 67.9978 33.552C68.6164 33.232 69.1391 32.7627 69.5658 32.144C69.9924 31.5253 70.2804 30.7467 70.4298 29.808C70.7284 29.872 70.9418 30.0213 71.0698 30.256C71.2191 30.4693 71.2938 30.7147 71.2938 30.992C71.2938 31.4613 71.0804 31.9627 70.6538 32.496C70.2484 33.008 69.6191 33.4453 68.7658 33.808C67.9338 34.1493 66.8778 34.32 65.5978 34.32ZM68.3178 24.624C68.3178 22.7253 68.2111 21.2107 67.9978 20.08C67.7844 18.9493 67.4431 18.128 66.9738 17.616C66.5044 17.0827 65.8751 16.816 65.0858 16.816C64.2538 16.816 63.5711 17.0827 63.0378 17.616C62.5258 18.128 62.1418 18.9493 61.8858 20.08C61.6298 21.2107 61.4698 22.7253 61.4058 24.624H68.3178ZM80.3153 34.32C79.2486 34.32 78.3206 34.128 77.5312 33.744C76.7419 33.3387 76.1339 32.784 75.7073 32.08C75.3019 31.3547 75.0993 30.5013 75.0993 29.52C75.0993 27.8773 75.6966 26.6613 76.8913 25.872C78.0859 25.0827 79.9099 24.6453 82.3633 24.56L84.9873 24.464V21.616C84.9873 20.4853 84.9233 19.568 84.7953 18.864C84.6673 18.16 84.4113 17.648 84.0273 17.328C83.6433 16.9867 83.0673 16.816 82.2993 16.816C81.5526 16.816 80.9766 16.9867 80.5713 17.328C80.1873 17.648 79.9206 18.16 79.7713 18.864C79.6433 19.568 79.5793 20.5067 79.5793 21.68C78.5553 21.68 77.7766 21.5307 77.2433 21.232C76.7099 20.912 76.4433 20.4 76.4433 19.696C76.4433 18.928 76.7099 18.3093 77.2433 17.84C77.7979 17.3707 78.5233 17.0293 79.4193 16.816C80.3366 16.6027 81.3393 16.496 82.4273 16.496C84.4539 16.496 85.9686 16.912 86.9713 17.744C87.9953 18.576 88.5073 19.9947 88.5073 22V31.568C88.5073 32.1013 88.5713 32.528 88.6993 32.848C88.8273 33.1467 89.0406 33.36 89.3393 33.488C89.6379 33.616 90.0219 33.68 90.4913 33.68H90.5873V34H85.2113V30.672H85.1473C84.9126 31.5467 84.5606 32.2507 84.0913 32.784C83.6219 33.3173 83.0673 33.712 82.4273 33.968C81.7873 34.2027 81.0833 34.32 80.3153 34.32ZM81.2433 33.744C81.9899 33.744 82.6406 33.5307 83.1953 33.104C83.7713 32.6773 84.2086 32.1227 84.5073 31.44C84.8273 30.736 84.9873 29.9787 84.9873 29.168V24.816L83.0993 24.88C81.9899 24.9227 81.1153 25.1147 80.4753 25.456C79.8353 25.7973 79.3766 26.3093 79.0993 26.992C78.8433 27.6747 78.7153 28.592 78.7153 29.744C78.7153 30.64 78.8006 31.3867 78.9713 31.984C79.1633 32.5813 79.4406 33.0293 79.8033 33.328C80.1873 33.6053 80.6673 33.744 81.2433 33.744ZM100.035 34.32C98.627 34.32 97.443 33.9893 96.483 33.328C95.523 32.6667 94.7977 31.6747 94.307 30.352C93.8163 29.008 93.571 27.3547 93.571 25.392C93.571 23.3867 93.8057 21.7333 94.275 20.432C94.7657 19.1307 95.4803 18.1493 96.419 17.488C97.379 16.8267 98.5523 16.496 99.939 16.496C101.347 16.496 102.456 16.88 103.267 17.648C104.099 18.416 104.643 19.5893 104.899 21.168H104.963C104.963 20.3787 104.952 19.6213 104.931 18.896C104.931 18.1493 104.931 17.4773 104.931 16.88C104.931 16.2827 104.931 15.8027 104.931 15.44V12.336C104.931 11.76 104.824 11.3013 104.611 10.96C104.419 10.6187 104.131 10.3733 103.747 10.224C103.384 10.0747 102.936 10 102.403 10H102.211V9.68H108.451V31.312C108.451 31.9093 108.547 32.3787 108.739 32.72C108.931 33.0613 109.219 33.3067 109.603 33.456C109.987 33.6053 110.446 33.68 110.979 33.68H111.267V34H104.963V29.52H104.899C104.622 31.1627 104.067 32.3787 103.235 33.168C102.424 33.936 101.358 34.32 100.035 34.32ZM100.803 33.744C102.19 33.744 103.224 33.0507 103.907 31.664C104.59 30.256 104.931 28.1227 104.931 25.264C104.931 23.4507 104.782 21.9467 104.483 20.752C104.184 19.536 103.736 18.6187 103.139 18C102.542 17.3813 101.763 17.072 100.803 17.072C99.9497 17.072 99.2457 17.36 98.691 17.936C98.1577 18.4907 97.763 19.3653 97.507 20.56C97.2723 21.7547 97.155 23.312 97.155 25.232C97.155 27.216 97.2723 28.8373 97.507 30.096C97.763 31.3547 98.1577 32.2827 98.691 32.88C99.2457 33.456 99.9497 33.744 100.803 33.744ZM112.516 34V33.68H112.932C113.486 33.68 113.945 33.6053 114.308 33.456C114.692 33.3067 114.98 33.0613 115.172 32.72C115.364 32.3787 115.46 31.9093 115.46 31.312V19.504C115.46 18.928 115.364 18.4693 115.172 18.128C114.98 17.7867 114.692 17.5413 114.308 17.392C113.945 17.2427 113.486 17.168 112.932 17.168H112.772V16.848H118.98V31.216C118.98 31.8347 119.076 32.3253 119.268 32.688C119.46 33.0507 119.748 33.3067 120.132 33.456C120.516 33.6053 120.974 33.68 121.508 33.68H121.924V34H112.516ZM117.06 13.84C116.59 13.84 116.196 13.6907 115.876 13.392C115.577 13.0933 115.428 12.592 115.428 11.888C115.428 11.1627 115.588 10.6613 115.908 10.384C116.228 10.1067 116.612 9.968 117.06 9.968C117.508 9.968 117.892 10.1173 118.212 10.416C118.532 10.6933 118.692 11.184 118.692 11.888C118.692 12.592 118.532 13.0933 118.212 13.392C117.892 13.6907 117.508 13.84 117.06 13.84ZM123.175 34V33.68H123.463C124.039 33.68 124.508 33.6053 124.871 33.456C125.255 33.2853 125.532 33.008 125.703 32.624C125.895 32.2187 125.991 31.6747 125.991 30.992V19.792C125.991 19.1093 125.895 18.5867 125.703 18.224C125.532 17.84 125.266 17.5733 124.903 17.424C124.54 17.2533 124.082 17.168 123.527 17.168H123.303V16.848H129.479V19.824H129.543C129.842 18.8427 130.247 18.1173 130.759 17.648C131.271 17.1787 131.836 16.8693 132.455 16.72C133.095 16.5707 133.692 16.496 134.247 16.496C136.146 16.496 137.554 16.9973 138.471 18C139.388 18.9813 139.847 20.56 139.847 22.736V30.928C139.847 31.6533 139.922 32.2187 140.071 32.624C140.242 33.008 140.498 33.2853 140.839 33.456C141.18 33.6053 141.628 33.68 142.183 33.68H142.343V34H136.327V21.68C136.327 20.2933 136.092 19.184 135.623 18.352C135.154 17.52 134.343 17.104 133.191 17.104C132.274 17.104 131.538 17.3707 130.983 17.904C130.45 18.4373 130.066 19.1413 129.831 20.016C129.618 20.8693 129.511 21.7867 129.511 22.768V30.96C129.511 31.6853 129.596 32.24 129.767 32.624C129.959 33.008 130.236 33.2853 130.599 33.456C130.983 33.6053 131.452 33.68 132.007 33.68H132.199V34H123.175ZM150.643 41.68C148.317 41.68 146.589 41.296 145.459 40.528C144.328 39.7813 143.763 38.768 143.763 37.488C143.763 36.7627 143.933 36.1333 144.275 35.6C144.637 35.088 145.181 34.672 145.907 34.352C146.653 34.0533 147.603 33.8933 148.755 33.872C147.837 33.6373 147.133 33.2213 146.643 32.624C146.173 32.0267 145.939 31.376 145.939 30.672C145.939 29.9893 146.163 29.3707 146.611 28.816C147.08 28.24 147.784 27.792 148.723 27.472C147.656 27.1093 146.803 26.5013 146.163 25.648C145.544 24.7947 145.235 23.7173 145.235 22.416C145.235 20.5813 145.747 19.1413 146.771 18.096C147.816 17.0293 149.373 16.496 151.443 16.496C152.211 16.496 152.904 16.592 153.523 16.784C154.163 16.976 154.728 17.2533 155.219 17.616C155.475 17.3173 155.763 17.0293 156.083 16.752C156.403 16.4747 156.755 16.2507 157.139 16.08C157.523 15.888 157.939 15.792 158.387 15.792C159.027 15.792 159.507 15.9627 159.827 16.304C160.147 16.624 160.307 17.0293 160.307 17.52C160.307 17.9467 160.168 18.32 159.891 18.64C159.613 18.9387 159.133 19.088 158.451 19.088C158.451 18.4267 158.333 17.936 158.099 17.616C157.864 17.296 157.501 17.136 157.011 17.136C156.755 17.136 156.509 17.1893 156.275 17.296C156.061 17.3813 155.795 17.552 155.475 17.808C156.093 18.3413 156.563 19.0027 156.883 19.792C157.224 20.56 157.395 21.4133 157.395 22.352C157.395 23.952 156.904 25.2747 155.923 26.32C154.963 27.3653 153.469 27.888 151.443 27.888C151.016 27.888 150.611 27.8667 150.227 27.824C149.843 27.76 149.469 27.6853 149.107 27.6C148.637 27.8133 148.307 28.0587 148.115 28.336C147.944 28.6133 147.859 28.9227 147.859 29.264C147.859 29.7973 148.04 30.192 148.403 30.448C148.787 30.6827 149.373 30.8 150.163 30.8H153.843C155.165 30.8 156.221 31.0133 157.011 31.44C157.821 31.8453 158.408 32.4107 158.771 33.136C159.155 33.84 159.347 34.672 159.347 35.632C159.347 37.488 158.643 38.96 157.235 40.048C155.827 41.136 153.629 41.68 150.643 41.68ZM150.931 41.36C152.211 41.36 153.277 41.2 154.131 40.88C154.984 40.5813 155.624 40.1227 156.051 39.504C156.499 38.8853 156.723 38.096 156.723 37.136C156.723 36.0907 156.445 35.312 155.891 34.8C155.336 34.288 154.483 34.032 153.331 34.032H149.907C149.288 34.032 148.723 34.1387 148.211 34.352C147.699 34.5867 147.283 34.96 146.963 35.472C146.664 35.984 146.515 36.6773 146.515 37.552C146.515 38.4053 146.685 39.1093 147.027 39.664C147.389 40.24 147.891 40.6667 148.531 40.944C149.192 41.2213 149.992 41.36 150.931 41.36ZM151.347 27.568C152.008 27.568 152.531 27.3867 152.915 27.024C153.299 26.6613 153.576 26.096 153.747 25.328C153.917 24.56 154.003 23.568 154.003 22.352C154.003 21.0507 153.917 19.9947 153.747 19.184C153.576 18.3733 153.288 17.776 152.883 17.392C152.499 17.008 151.976 16.816 151.315 16.816C150.675 16.816 150.152 17.0187 149.747 17.424C149.363 17.8293 149.075 18.4373 148.883 19.248C148.712 20.0587 148.627 21.104 148.627 22.384C148.627 23.6 148.712 24.592 148.883 25.36C149.075 26.128 149.373 26.6933 149.779 27.056C150.184 27.3973 150.707 27.568 151.347 27.568Z" fill="black"/>
</svg>
